<svg width="336" height="342" viewBox="0 0 336 342" fill="none" xmlns="http://www.w3.org/2000/svg">
<g opacity="0.05">
<path d="M118 218H138V168H118V218ZM198 218H218V118H198V218ZM158 218H178V188H158V218ZM158 168H178V148H158V168ZM98 258C92.5 258 87.7917 256.042 83.875 252.125C79.9583 248.208 78 243.5 78 238V98C78 92.5 79.9583 87.7917 83.875 83.875C87.7917 79.9583 92.5 78 98 78H238C243.5 78 248.208 79.9583 252.125 83.875C256.042 87.7917 258 92.5 258 98V238C258 243.5 256.042 248.208 252.125 252.125C248.208 256.042 243.5 258 238 258H98ZM98 238H238V98H98V238Z" fill="#3C83F6"/>
</g>
</svg>
