<svg width="276" height="282" viewBox="0 0 276 282" fill="none" xmlns="http://www.w3.org/2000/svg">
<g opacity="0.05">
<path d="M153 145.5C146.75 145.5 141.438 143.312 137.062 138.938C132.688 134.562 130.5 129.25 130.5 123C130.5 116.75 132.688 111.438 137.062 107.062C141.438 102.688 146.75 100.5 153 100.5C159.25 100.5 164.562 102.688 168.938 107.062C173.312 111.438 175.5 116.75 175.5 123C175.5 129.25 173.312 134.562 168.938 138.938C164.562 143.312 159.25 145.5 153 145.5ZM100.5 168C96.375 168 92.8438 166.531 89.9062 163.594C86.9688 160.656 85.5 157.125 85.5 153V93C85.5 88.875 86.9688 85.3438 89.9062 82.4062C92.8438 79.4688 96.375 78 100.5 78H205.5C209.625 78 213.156 79.4688 216.094 82.4062C219.031 85.3438 220.5 88.875 220.5 93V153C220.5 157.125 219.031 160.656 216.094 163.594C213.156 166.531 209.625 168 205.5 168H100.5ZM115.5 153H190.5C190.5 148.875 191.969 145.344 194.906 142.406C197.844 139.469 201.375 138 205.5 138V108C201.375 108 197.844 106.531 194.906 103.594C191.969 100.656 190.5 97.125 190.5 93H115.5C115.5 97.125 114.031 100.656 111.094 103.594C108.156 106.531 104.625 108 100.5 108V138C104.625 138 108.156 139.469 111.094 142.406C114.031 145.344 115.5 148.875 115.5 153ZM198 198H70.5C66.375 198 62.8438 196.531 59.9062 193.594C56.9688 190.656 55.5 187.125 55.5 183V100.5H70.5V183H198V198Z" fill="#3C83F6"/>
</g>
</svg>
